# xmcd
#
# Track frame offsets:
#	150
#	10467
#	22068
#	35063
#	49689
#	59536
#	76661
#	91046
#	101288
#	117005
#	129657
#	138690
#	156031
#
# Disc length: 2220 seconds
#
# Revision: 1
# Processed by: cddbd v1.5.2PL0 Copyright (c) Steve Scherf et al.
# Submitted via: audiograbber 1.83.01
#
DISCID=a308aa0d
DTITLE=Johnny Trouble - That's Love
DYEAR=2014
DGENRE=Country
TTITLE0=Big Moon
TTITLE1=Still On My Mind
TTITLE2=Blue Guitar
TTITLE3=Big Black Train
TTITLE4=Troubles Of My Own
TTITLE5=Long Distance Romance
TTITLE6=Days Like This
TTITLE7=It's Gotta Be That Way
TTITLE8=Yesterday Cowboy
TTITLE9=Millers Cave
TTITLE10=House Rent Blues
TTITLE11=That's Love
TTITLE12=Me And My New Baby
EXTD=
EXTT0=
EXTT1=
EXTT2=
EXTT3=
EXTT4=
EXTT5=
EXTT6=
EXTT7=
EXTT8=
EXTT9=
EXTT10=
EXTT11=
EXTT12=
PLAYORDER=
